<?xml version="1.0" encoding="UTF-8" standalone="no"?>
<!-- Created with enve https://maurycyliebner.github.io -->

<svg xmlns:xlink="http://www.w3.org/1999/xlink" viewBox="0 0 2560 1440" xmlns="http://www.w3.org/2000/svg">
 <rect fill="#000000" width="2560" height="1440"/>
 <g transform="translate(283.464 144.567)">
  <g transform="translate(999.363 589.65)">
   <g>
    <animateTransform calcMode="spline" dur="1.29167s" values="360;360;180" repeatCount="indefinite" attributeName="transform" keyTimes="0;0;1" type="rotate" keySplines="0 0 1 1;0 0 1 1"/>
    <g transform="scale(2.6077 2.6077)">
     <g transform="skewX(0) skewY(0)">
      <g opacity="1" transform="translate(-283.464 -144.567)">
       <path fill="black" stroke="none" stroke-width="0" d="M283.465 184.107C281.274 184.107 279.123 183.528 277.228 182.43C277.228 182.43 253.91 168.916 253.91 168.916C250.051 166.668 247.676 162.542 247.669 158.076C247.669 158.076 247.669 131.058 247.669 131.058C247.676 126.593 250.051 122.466 253.909 120.218C253.909 120.218 277.228 106.704 277.228 106.704C281.085 104.467 285.845 104.467 289.702 106.704C289.702 106.704 313.02 120.218 313.02 120.218C316.877 122.466 319.253 126.593 319.26 131.058C319.26 131.058 319.26 158.076 319.26 158.076C319.253 162.541 316.877 166.668 313.02 168.916C313.02 168.916 289.702 182.43 289.702 182.43C287.807 183.528 285.655 184.107 283.465 184.107ZM283.714 127.371C274.21 127.339 266.481 135.023 266.459 144.527C266.437 154.031 274.129 161.751 283.633 161.764C293.138 161.776 300.85 154.076 300.853 144.572C300.862 135.092 293.193 127.395 283.714 127.371C283.714 127.371 283.714 127.371 283.714 127.371Z"/>
      </g>
     </g>
    </g>
   </g>
  </g>
 </g>
 <g transform="translate(283.464 144.567)">
  <g transform="translate(999.363 589.65)">
   <g>
    <animateTransform calcMode="spline" dur="1.29167s" values="360;360;180" repeatCount="indefinite" attributeName="transform" keyTimes="0;0;1" type="rotate" keySplines="0 0 1 1;0 0 1 1"/>
    <g transform="scale(1.6408 1.6408)">
     <g transform="skewX(0) skewY(0)">
      <g opacity="1" transform="translate(-283.464 -144.567)">
       <path fill="#27bdcc" stroke="none" stroke-width="0" d="M283.465 184.107C281.274 184.107 279.123 183.528 277.228 182.43C277.228 182.43 253.91 168.916 253.91 168.916C250.051 166.668 247.676 162.542 247.669 158.076C247.669 158.076 247.669 131.058 247.669 131.058C247.676 126.593 250.051 122.466 253.909 120.218C253.909 120.218 277.228 106.704 277.228 106.704C281.085 104.467 285.845 104.467 289.702 106.704C289.702 106.704 313.02 120.218 313.02 120.218C316.877 122.466 319.253 126.593 319.26 131.058C319.26 131.058 319.26 158.076 319.26 158.076C319.253 162.541 316.877 166.668 313.02 168.916C313.02 168.916 289.702 182.43 289.702 182.43C287.807 183.528 285.655 184.107 283.465 184.107ZM283.714 127.371C274.21 127.339 266.481 135.023 266.459 144.527C266.437 154.031 274.129 161.751 283.633 161.764C293.138 161.776 300.85 154.076 300.853 144.572C300.862 135.092 293.193 127.395 283.714 127.371C283.714 127.371 283.714 127.371 283.714 127.371Z"/>
      </g>
     </g>
    </g>
   </g>
  </g>
 </g>
 <g transform="translate(283.464 144.567)">
  <g transform="translate(999.363 589.65)">
   <g>
    <animateTransform calcMode="spline" dur="1.29167s" values="0;0;180" repeatCount="indefinite" attributeName="transform" keyTimes="0;0;1" type="rotate" keySplines="0 0 1 1;0 0 1 1"/>
    <g transform="scale(1.11519 1.11519)">
     <g transform="skewX(0) skewY(0)">
      <g opacity="1" transform="translate(-283.464 -144.567)">
       <path fill="#ffffff" stroke="none" stroke-width="0" d="M283.465 184.107C281.274 184.107 279.123 183.528 277.228 182.43C277.228 182.43 253.91 168.916 253.91 168.916C250.051 166.668 247.676 162.542 247.669 158.076C247.669 158.076 247.669 131.058 247.669 131.058C247.676 126.593 250.051 122.466 253.909 120.218C253.909 120.218 277.228 106.704 277.228 106.704C281.085 104.467 285.845 104.467 289.702 106.704C289.702 106.704 313.02 120.218 313.02 120.218C316.877 122.466 319.253 126.593 319.26 131.058C319.26 131.058 319.26 158.076 319.26 158.076C319.253 162.541 316.877 166.668 313.02 168.916C313.02 168.916 289.702 182.43 289.702 182.43C287.807 183.528 285.655 184.107 283.465 184.107ZM283.714 127.371C274.21 127.339 266.481 135.023 266.459 144.527C266.437 154.031 274.129 161.751 283.633 161.764C293.138 161.776 300.85 154.076 300.853 144.572C300.862 135.092 293.193 127.395 283.714 127.371C283.714 127.371 283.714 127.371 283.714 127.371Z"/>
      </g>
     </g>
    </g>
   </g>
  </g>
 </g>
 <defs/>
</svg>
